<?xml version="1.0" standalone="no"?>
<!DOCTYPE svg PUBLIC "-//W3C//DTD SVG 20010904//EN"
 "http://www.w3.org/TR/2001/REC-SVG-20010904/DTD/svg10.dtd">
<svg version="1.0" xmlns="http://www.w3.org/2000/svg"
 width="267.000000pt" height="267.000000pt" viewBox="0 0 267.000000 267.000000"
 preserveAspectRatio="xMidYMid meet">
<metadata>
Created by potrace 1.14, written by Peter Selinger 2001-2017
</metadata>
<g transform="translate(0.000000,267.000000) scale(0.100000,-0.100000)"
fill="#000000" stroke="none">
<path d="M1490 2267 c-34 -17 -36 -44 -10 -149 25 -98 48 -126 95 -114 42 11
51 45 31 123 -31 118 -36 130 -62 142 -30 13 -24 13 -54 -2z"/>
<path d="M1946 2251 c-16 -17 -29 -55 -57 -161 -12 -49 5 -87 42 -95 51 -11
66 11 99 144 21 83 16 105 -26 121 -34 13 -38 13 -58 -9z"/>
<path d="M1067 2032 c-32 -35 -21 -63 55 -139 77 -78 109 -90 141 -55 32 35
21 63 -55 140 -77 77 -109 89 -141 54z"/>
<path d="M2289 1953 c-85 -82 -95 -107 -59 -143 34 -34 58 -25 138 53 78 77
92 111 60 143 -35 35 -58 26 -139 -53z"/>
<path d="M1685 1892 c-57 -6 -149 -34 -199 -59 -83 -41 -206 -151 -198 -176 2
-6 -7 -3 -20 5 -22 15 -100 43 -149 54 -13 3 -67 7 -119 9 -192 8 -366 -64
-490 -203 -53 -58 -130 -201 -130 -240 0 -16 -9 -24 -39 -32 -225 -60 -357
-237 -337 -452 14 -147 82 -264 198 -339 105 -67 115 -68 814 -69 678 0 653
-2 787 59 46 21 132 82 155 110 67 81 110 191 115 292 2 40 9 53 58 108 210
231 203 558 -15 777 -108 107 -287 172 -431 156z"/>
<path d="M2555 1605 c-27 -8 -69 -20 -92 -26 -23 -6 -47 -17 -53 -24 -33 -40
-5 -99 46 -98 55 0 189 43 203 64 18 29 5 74 -25 88 -14 6 -26 11 -27 10 -1 0
-24 -7 -52 -14z"/>
<path d="M2414 1182 c-25 -16 -35 -50 -23 -76 12 -25 17 -28 179 -76 37 -10
77 7 84 36 15 56 -6 74 -122 104 -88 22 -101 23 -118 12z"/>
<path d="M2208 848 c-9 -7 -18 -25 -22 -39 -5 -23 4 -37 67 -103 61 -63 78
-76 105 -76 39 0 68 37 56 72 -4 12 -36 53 -73 90 -68 70 -98 83 -133 56z"/>
</g>
</svg>
